<svg width="71" height="21" viewBox="0 0 71 21" fill="none" xmlns="http://www.w3.org/2000/svg">
<path d="M9.49167 1.90583C8.69814 2.59398 8.09839 3.47769 7.75194 4.46925C7.40548 5.46081 7.32438 6.52574 7.51667 7.55833C6.24917 6.82833 4.85 6.60833 3.24417 6.74167C3.13926 6.75037 3.03711 6.77973 2.9436 6.82807C2.85008 6.8764 2.76705 6.94275 2.69928 7.0233C2.63151 7.10385 2.58034 7.19701 2.54871 7.29742C2.51709 7.39782 2.50563 7.50349 2.515 7.60833C2.64583 9.04667 3.30833 10.4733 4.23167 11.5883C3.88392 11.585 3.53637 11.6065 3.19167 11.6525C2.99306 11.6788 2.81205 11.7801 2.68588 11.9357C2.55971 12.0914 2.49797 12.2894 2.51333 12.4892C2.63572 14.0791 3.35369 15.5643 4.52369 16.6477C5.6937 17.7312 7.22953 18.3332 8.82417 18.3333H11.1758C12.7705 18.3332 14.3063 17.7312 15.4763 16.6477C16.6463 15.5643 17.3643 14.0791 17.4867 12.4892C17.5018 12.2895 17.44 12.0915 17.3139 11.9359C17.1877 11.7804 17.0069 11.679 16.8083 11.6525C16.4678 11.6071 16.1244 11.5856 15.7808 11.5883C16.7033 10.4725 17.3658 9.04667 17.4975 7.60833C17.5069 7.50349 17.4954 7.39782 17.4638 7.29742C17.4322 7.19701 17.381 7.10385 17.3132 7.0233C17.2454 6.94275 17.1624 6.8764 17.0689 6.82807C16.9754 6.77973 16.8732 6.75037 16.7683 6.74167C15.1617 6.60833 13.755 6.82833 12.4825 7.55833C12.675 6.52589 12.5941 5.46105 12.248 4.4695C11.9018 3.47795 11.3024 2.59416 10.5092 1.90583C10.3681 1.78308 10.1874 1.71547 10.0004 1.71547C9.81342 1.71547 9.63273 1.78308 9.49167 1.90583V1.90583ZM10 9.7725C9.14436 8.8815 8.66653 7.69407 8.66653 6.45875C8.66653 5.22344 9.14436 4.036 10 3.145C10.8552 4.03606 11.3327 5.22328 11.3327 6.45833C11.3327 7.69339 10.8552 8.88061 10 9.77167V9.7725ZM10 14.445C9.09197 13.2908 7.8656 12.428 6.4725 11.9633C6.44577 11.9372 6.41677 11.9135 6.38583 11.8925C5.16083 11.0592 4.12 9.5225 3.825 7.95917C5.38333 7.9075 6.60583 8.28167 7.72083 9.22667C8.575 9.95083 8.95417 10.8333 9.23583 11.4892C9.30833 11.6592 9.375 11.8142 9.44083 11.9458C9.49271 12.0497 9.57251 12.1371 9.67128 12.1982C9.77004 12.2593 9.88387 12.2916 10 12.2916C10.1161 12.2916 10.23 12.2593 10.3287 12.1982C10.4275 12.1371 10.5073 12.0497 10.5592 11.9458C10.6321 11.7957 10.7004 11.6434 10.7642 11.4892C11.0458 10.8333 11.425 9.95 12.2792 9.22667C13.3942 8.2825 14.6267 7.9075 16.1875 7.95917C15.8917 9.5225 14.8508 11.0592 13.6258 11.8925C13.5978 11.9117 13.5713 11.9332 13.5467 11.9567C12.1458 12.4199 10.9122 13.2853 10 14.445V14.445ZM10.5367 15.8667C11.6967 13.925 13.8717 12.7167 16.185 12.8475C15.9854 14.0317 15.3728 15.1069 14.4558 15.8824C13.5388 16.6578 12.3767 17.0833 11.1758 17.0833H8.82417C6.32417 17.0833 4.22083 15.27 3.81583 12.8483C6.12833 12.7167 8.30333 13.9242 9.46333 15.8667C9.51878 15.9596 9.59737 16.0365 9.69144 16.0899C9.78551 16.1433 9.89183 16.1713 10 16.1713C10.1082 16.1713 10.2145 16.1433 10.3086 16.0899C10.4026 16.0365 10.4812 15.9596 10.5367 15.8667V15.8667Z" fill="#0D9488"/>
<path d="M23.1477 17V5.36364H27.6023C28.4432 5.36364 29.142 5.49621 29.6989 5.76136C30.2595 6.02273 30.678 6.38068 30.9545 6.83523C31.2348 7.28977 31.375 7.80492 31.375 8.38068C31.375 8.85417 31.2841 9.25947 31.1023 9.59659C30.9205 9.92992 30.6761 10.2008 30.3693 10.4091C30.0625 10.6174 29.7197 10.767 29.3409 10.858V10.9716C29.7538 10.9943 30.1496 11.1212 30.5284 11.3523C30.911 11.5795 31.2235 11.9015 31.4659 12.3182C31.7083 12.7348 31.8295 13.2386 31.8295 13.8295C31.8295 14.4318 31.6837 14.9735 31.392 15.4545C31.1004 15.9318 30.661 16.3087 30.0739 16.5852C29.4867 16.8617 28.7481 17 27.858 17H23.1477ZM25.2557 15.2386H27.5227C28.2879 15.2386 28.839 15.0928 29.1761 14.8011C29.517 14.5057 29.6875 14.1269 29.6875 13.6648C29.6875 13.3201 29.6023 13.0095 29.4318 12.733C29.2614 12.4527 29.0189 12.233 28.7045 12.0739C28.3902 11.911 28.0152 11.8295 27.5795 11.8295H25.2557V15.2386ZM25.2557 10.3125H27.3409C27.7045 10.3125 28.0322 10.2462 28.3239 10.1136C28.6155 9.97727 28.8447 9.78598 29.0114 9.53977C29.1818 9.28977 29.267 8.99432 29.267 8.65341C29.267 8.20265 29.108 7.83144 28.7898 7.53977C28.4754 7.24811 28.0076 7.10227 27.3864 7.10227H25.2557V10.3125ZM36.0838 17.1761C35.5308 17.1761 35.0327 17.0777 34.5895 16.8807C34.1501 16.6799 33.8016 16.3845 33.544 15.9943C33.2902 15.6042 33.1634 15.1231 33.1634 14.5511C33.1634 14.0587 33.2543 13.6515 33.4361 13.3295C33.6179 13.0076 33.866 12.75 34.1804 12.5568C34.4948 12.3636 34.849 12.2178 35.2429 12.1193C35.6406 12.017 36.0516 11.9432 36.4759 11.8977C36.9872 11.8447 37.402 11.7973 37.7202 11.7557C38.0384 11.7102 38.2694 11.642 38.4134 11.5511C38.5611 11.4564 38.6349 11.3106 38.6349 11.1136V11.0795C38.6349 10.6515 38.508 10.3201 38.2543 10.0852C38.0005 9.85038 37.6349 9.73295 37.1577 9.73295C36.6539 9.73295 36.2543 9.8428 35.9588 10.0625C35.6671 10.2822 35.4702 10.5417 35.3679 10.8409L33.4474 10.5682C33.599 10.0379 33.849 9.5947 34.1974 9.23864C34.5459 8.87879 34.9721 8.60985 35.4759 8.43182C35.9796 8.25 36.5365 8.15909 37.1463 8.15909C37.5668 8.15909 37.9853 8.20833 38.402 8.30682C38.8187 8.4053 39.1993 8.56818 39.544 8.79545C39.8887 9.01894 40.1652 9.32386 40.3736 9.71023C40.5857 10.0966 40.6918 10.5795 40.6918 11.1591V17H38.7145V15.8011H38.6463C38.5213 16.0436 38.3452 16.2708 38.1179 16.483C37.8944 16.6913 37.6122 16.8598 37.2713 16.9886C36.9342 17.1136 36.5384 17.1761 36.0838 17.1761ZM36.6179 15.6648C37.0308 15.6648 37.3887 15.5833 37.6918 15.4205C37.9948 15.2538 38.2277 15.0341 38.3906 14.7614C38.5573 14.4886 38.6406 14.1913 38.6406 13.8693V12.8409C38.5762 12.8939 38.4664 12.9432 38.3111 12.9886C38.1596 13.0341 37.9891 13.0739 37.7997 13.108C37.6103 13.142 37.4228 13.1723 37.2372 13.1989C37.0516 13.2254 36.8906 13.2481 36.7543 13.267C36.4474 13.3087 36.1728 13.3769 35.9304 13.4716C35.688 13.5663 35.4967 13.6989 35.3565 13.8693C35.2164 14.036 35.1463 14.2519 35.1463 14.517C35.1463 14.8958 35.2846 15.1818 35.5611 15.375C35.8376 15.5682 36.1899 15.6648 36.6179 15.6648ZM42.6463 17V15.6932L47.1463 10.0511V9.97727H42.794V8.27273H49.6634V9.67614L45.3793 15.2216V15.2955H49.8111V17H42.6463ZM54.2557 17.1761C53.7027 17.1761 53.2045 17.0777 52.7614 16.8807C52.322 16.6799 51.9735 16.3845 51.7159 15.9943C51.4621 15.6042 51.3352 15.1231 51.3352 14.5511C51.3352 14.0587 51.4261 13.6515 51.608 13.3295C51.7898 13.0076 52.0379 12.75 52.3523 12.5568C52.6667 12.3636 53.0208 12.2178 53.4148 12.1193C53.8125 12.017 54.2235 11.9432 54.6477 11.8977C55.1591 11.8447 55.5739 11.7973 55.892 11.7557C56.2102 11.7102 56.4413 11.642 56.5852 11.5511C56.733 11.4564 56.8068 11.3106 56.8068 11.1136V11.0795C56.8068 10.6515 56.6799 10.3201 56.4261 10.0852C56.1723 9.85038 55.8068 9.73295 55.3295 9.73295C54.8258 9.73295 54.4261 9.8428 54.1307 10.0625C53.839 10.2822 53.642 10.5417 53.5398 10.8409L51.6193 10.5682C51.7708 10.0379 52.0208 9.5947 52.3693 9.23864C52.7178 8.87879 53.1439 8.60985 53.6477 8.43182C54.1515 8.25 54.7083 8.15909 55.3182 8.15909C55.7386 8.15909 56.1572 8.20833 56.5739 8.30682C56.9905 8.4053 57.3712 8.56818 57.7159 8.79545C58.0606 9.01894 58.3371 9.32386 58.5455 9.71023C58.7576 10.0966 58.8636 10.5795 58.8636 11.1591V17H56.8864V15.8011H56.8182C56.6932 16.0436 56.517 16.2708 56.2898 16.483C56.0663 16.6913 55.7841 16.8598 55.4432 16.9886C55.1061 17.1136 54.7102 17.1761 54.2557 17.1761ZM54.7898 15.6648C55.2027 15.6648 55.5606 15.5833 55.8636 15.4205C56.1667 15.2538 56.3996 15.0341 56.5625 14.7614C56.7292 14.4886 56.8125 14.1913 56.8125 13.8693V12.8409C56.7481 12.8939 56.6383 12.9432 56.483 12.9886C56.3314 13.0341 56.161 13.0739 55.9716 13.108C55.7822 13.142 55.5947 13.1723 55.4091 13.1989C55.2235 13.2254 55.0625 13.2481 54.9261 13.267C54.6193 13.3087 54.3447 13.3769 54.1023 13.4716C53.8598 13.5663 53.6686 13.6989 53.5284 13.8693C53.3883 14.036 53.3182 14.2519 53.3182 14.517C53.3182 14.8958 53.4564 15.1818 53.733 15.375C54.0095 15.5682 54.3617 15.6648 54.7898 15.6648ZM60.9318 17V8.27273H62.9261V9.72727H63.017C63.1761 9.22348 63.4489 8.83523 63.8352 8.5625C64.2254 8.28598 64.6705 8.14773 65.1705 8.14773C65.2841 8.14773 65.411 8.15341 65.5511 8.16477C65.6951 8.17235 65.8144 8.18561 65.9091 8.20455V10.0966C65.822 10.0663 65.6837 10.0398 65.4943 10.017C65.3087 9.99053 65.1288 9.97727 64.9545 9.97727C64.5795 9.97727 64.2424 10.0587 63.9432 10.2216C63.6477 10.3807 63.4148 10.6023 63.2443 10.8864C63.0739 11.1705 62.9886 11.4981 62.9886 11.8693V17H60.9318ZM67.2756 17V8.27273H69.3324V17H67.2756ZM68.3097 7.03409C67.9839 7.03409 67.7036 6.92614 67.4688 6.71023C67.2339 6.49053 67.1165 6.22727 67.1165 5.92045C67.1165 5.60985 67.2339 5.34659 67.4688 5.13068C67.7036 4.91098 67.9839 4.80114 68.3097 4.80114C68.6392 4.80114 68.9195 4.91098 69.1506 5.13068C69.3854 5.34659 69.5028 5.60985 69.5028 5.92045C69.5028 6.22727 69.3854 6.49053 69.1506 6.71023C68.9195 6.92614 68.6392 7.03409 68.3097 7.03409Z" fill="#0D9488"/>
</svg>
